<?xml version="1.0" encoding="utf-8"?>
<!-- Generator: Adobe Illustrator 26.4.1, SVG Export Plug-In . SVG Version: 6.00 Build 0)  -->
<svg version="1.1" id="_レイヤー_2" xmlns="http://www.w3.org/2000/svg" xmlns:xlink="http://www.w3.org/1999/xlink" x="0px"
	 y="0px" viewBox="0 0 138.6 42.7" style="enable-background:new 0 0 138.6 42.7;" xml:space="preserve">
<style type="text/css">
	.st0{fill:#44A27A;}
</style>
<g id="_レイヤー_1-2">
	<g>
		<path class="st0" d="M9.1,11.1c1.2-2.1,3.3-3.1,5.9-3.1c3.7,0,6.5,2.2,6.5,7v13.9h-6.1V16.2c0-2.8-0.9-3.7-2.8-3.7
			c-1.8,0-3.1,1.1-3.1,3.7v12.6H3.3V8.3H9L9.1,11.1C9,11,9.1,11,9.1,11.1z"/>
		<path class="st0" d="M41.4,18.2c0,7.7-4.4,10.9-10,10.9s-10-3.2-10-10.3c0-7.7,4.4-10.9,10-10.9S41.4,11.1,41.4,18.2z M35.1,18.5
			c0-3.4-1.1-6.1-3.7-6.1c-2.5,0-3.7,1.9-3.7,6.2c0,3.4,1.1,6.1,3.7,6.1C33.9,24.7,35.1,22.7,35.1,18.5z"/>
		<path class="st0" d="M46.4,13.7c0.6-3.9,2.4-5.9,5.3-5.9c0.5,0,1.2,0,1.7,0.1v5.1c-0.5-0.1-1.2-0.1-1.7-0.1
			c-2.7,0-4.2,0.7-4.2,4.8v11.1h-6.2V8.3h5v5.4H46.4z"/>
		<path class="st0" d="M59.2,21.9c0,2,0.9,2.7,3,2.7c0.7,0,1.3-0.1,1.7-0.3v4.3c-1.1,0.4-2.7,0.6-4,0.6c-3.9,0-6.6-2-6.6-6.3V12.6
			h-3V8.3h3V5.5l5.9-3.4v6.2h4.4v4.3h-4.4L59.2,21.9L59.2,21.9z"/>
		<path class="st0" d="M68.9,10.9c1.2-2,3.3-3,5.8-3c3.7,0,6.5,2.2,6.5,7v13.9h-6.1V16.2c0-2.8-0.9-3.7-2.8-3.7
			c-1.8,0-3.1,1.1-3.1,3.7v12.6H63V0h6.1v5.1c0,3.2-0.3,5.1-0.4,5.8H68.9L68.9,10.9z"/>
		<path class="st0" d="M94,28.8h-7.5L80.3,8.3h6.5l2.4,10.1c0.7,2.8,1,4.4,1.2,6.6h0.2c0.2-2.2,0.5-3.7,1.2-6.6l2.4-10.1h5.8
			L94,28.8z"/>
		<path class="st0" d="M118.2,18.2c0,7.7-4.4,10.9-10,10.9s-10-3.2-10-10.3c0-7.7,4.4-10.9,10-10.9S118.2,11.1,118.2,18.2z
			 M111.9,18.5c0-3.4-1.1-6.1-3.7-6.1c-2.5,0-3.7,1.9-3.7,6.2c0,3.4,1.1,6.1,3.7,6.1C110.7,24.7,111.9,22.7,111.9,18.5z"/>
		<path class="st0" d="M124.2,23.1c0,1.1,0.4,1.7,1.4,1.7c0.1,0,0.4,0,0.6-0.1v4c-0.7,0.2-1.8,0.4-2.7,0.4c-3.1,0-5.4-1.1-5.4-5V0
			h6.1C124.2,0,124.2,23.1,124.2,23.1z"/>
		<path class="st0" d="M132.1,21.9c0,2,0.9,2.7,3,2.7c0.6,0,1.3-0.1,1.7-0.3v4.3c-1.1,0.4-2.7,0.6-4,0.6c-3.9,0-6.6-2-6.6-6.3V12.6
			h-2.9V8.3h2.9V5.5l5.9-3.4v6.2h4.4v4.3h-4.4L132.1,21.9L132.1,21.9z"/>
	</g>
	<g>
		<path class="st0" d="M3.1,41.7c0,0.6,0,0.6,1.3,0.7c0.1,0,0.1,0,0.1,0.1c0,0,0,0.1-0.1,0.1c-0.1,0-0.1,0-0.4,0c-0.5,0-1.2,0-1.7,0
			s-1.2,0-1.7,0c-0.3,0-0.4,0-0.4,0c-0.1,0-0.1,0-0.1-0.1c0-0.1,0.1-0.1,0.1-0.1c1.3,0,1.3-0.1,1.3-0.7v-6c0-0.6,0-0.6-1.3-0.7
			C0,35,0,35,0,34.9c0,0,0-0.1,0.1-0.1c0,0,0.1,0,0.4,0c0.5,0,1.2,0,1.7,0s1.2,0,1.7,0c0.3,0,0.4,0,0.4,0c0.1,0,0.1,0,0.1,0.1
			C4.6,35,4.5,35,4.4,35c-1.3,0-1.3,0.1-1.3,0.7C3.1,35.7,3.1,41.7,3.1,41.7z"/>
		<path class="st0" d="M19,36.5c0-1.1-0.6-1.5-2-1.5c-0.1,0-0.1,0-0.1-0.1s0-0.1,0.1-0.1c0,0,0.2,0,0.5,0c0.7,0,1.3,0,1.7,0
			c0.4,0,0.7,0,1.4,0c0.2,0,0.3,0,0.4,0c0.1,0,0.1,0.1,0.1,0.1s0,0.1-0.1,0.1c-1,0-1.6,0.4-1.6,1.5v6c0,0.2-0.1,0.2-0.2,0.2
			c-0.1,0-0.2,0-0.2-0.1l-6.3-6.7v5c0,1.2,0.3,1.5,2,1.5c0.1,0,0.1,0,0.1,0.1s0,0.1-0.1,0.1c0,0-0.1,0-0.4,0c-0.7,0-1.2,0-1.8,0
			c-0.4,0-0.9,0-1.4,0c-0.2,0-0.2,0-0.3,0c-0.1,0-0.1,0-0.1-0.1s0.1-0.1,0.1-0.1c1.1,0,1.6-0.3,1.6-1.5V36c0-0.9-0.2-1-1.6-1
			c-0.1,0-0.1,0-0.1-0.1s0.1-0.1,0.1-0.1h2.7c0.3,0,0.4,0.1,0.6,0.3l4.9,5.3L19,36.5L19,36.5z"/>
		<path class="st0" d="M31.3,42.6c-0.7-1.5-2.2-4.8-2.8-6c-0.8-1.6-0.9-1.6-1.6-1.7c-0.1,0-0.1,0-0.1-0.1s0-0.1,0.1-0.1
			c0,0,0.2,0,0.4,0c0.8,0,1.6,0,2.1,0s1,0,1.5,0c0.4,0,0.6,0,0.6,0c0.1,0,0.1,0,0.1,0.1c0,0.1,0,0.1-0.1,0.1c-1,0.1-1.5,0.2-1.5,0.8
			c0,0.2,0,0.4,0.2,0.7c0.5,1.3,1.4,3.4,2,4.6c0.6-1.2,1.6-3.4,2-4.5c0.1-0.3,0.2-0.5,0.2-0.7c0-0.6-0.6-0.8-1.3-0.8
			c-0.1,0-0.1,0-0.1-0.1c0-0.1,0-0.1,0.1-0.1c0.1,0,0.5,0,0.9,0c0.3,0,0.5,0,0.8,0c0.4,0,0.7,0,1.1,0c0.1,0,0.3,0,0.4,0
			c0.1,0,0.1,0,0.1,0.1c0,0,0,0.1-0.1,0.1c-0.9,0.1-1.2,0.4-1.8,1.8c-0.9,1.9-2,4.2-2.7,5.8L31.3,42.6L31.3,42.6z"/>
		<path class="st0" d="M46.2,38.5c1.2,0,2-0.1,2.2-1c0,0,0-0.1,0.1-0.1s0.1,0,0.1,0.1s0,0.1,0,0.4c0,0.2,0,0.7,0,0.9s0,0.5,0,0.8
			c0,0.2,0,0.2,0,0.2c0,0.1,0,0.1-0.1,0.1c0,0-0.1,0-0.1-0.1c-0.2-0.9-1-1-2.2-1h-0.8v2.8c0,0.7,0.3,0.9,0.9,0.9h0.2
			c1.7,0,2.5-0.6,3-2c0,0,0,0,0.1,0s0.1,0,0.1,0.1c0,0.4-0.2,1.4-0.3,1.8c-0.1,0.4-0.2,0.4-0.5,0.4c-0.3,0-0.5,0-1.2,0
			c-0.8,0-1.9,0-3,0c-0.5,0-1,0-1.4,0c-0.5,0-0.8,0-1,0c-0.1,0-0.1,0-0.1-0.1s0-0.1,0.1-0.1c1.2,0,1.3,0,1.3-1.1v-5.2
			c0-1.1-0.1-1.1-1.4-1.2c-0.1,0-0.1,0-0.1-0.1s0-0.1,0.1-0.1c0,0,0.3,0,0.5,0c0.7,0,1.6,0,1.9,0h1.5c0.9,0,1.5,0,2,0
			c0.4,0,0.5,0,0.6,0c0.2,0,0.3,0,0.3,0.2c0,0.3,0,0.6,0,1c0,0.2,0,0.5,0,0.7c0,0.1,0,0.1-0.1,0.1c0,0-0.1,0-0.1-0.1
			c-0.2-1-0.8-1.7-2.2-1.7h-1c-0.2,0-0.3,0-0.3,0.3v3.1L46.2,38.5L46.2,38.5z"/>
		<path class="st0" d="M61.8,36.8c0,0.1,0,0.1-0.1,0.1s-0.1,0-0.1-0.1c-0.3-1.2-1-1.9-2.2-1.9c-0.9,0-1.6,0.5-1.6,1.3
			s0.9,1.3,2.1,1.7c1.6,0.6,2.5,1,2.5,2.3s-1.2,2.4-3.5,2.4c-0.5,0-1-0.1-1.4-0.2c-0.3-0.1-0.6-0.1-0.8-0.1c-0.1,0-0.3,0-0.4,0.2
			c0,0-0.1,0.1-0.1,0.1s-0.1,0-0.1-0.1c0,0,0,0,0-0.2c0.1-0.4,0.2-0.7,0.2-1.1s0-0.9-0.1-1.1c0-0.1,0-0.1,0-0.1c0-0.1,0-0.1,0.1-0.1
			c0,0,0.1,0,0.1,0.1c0.5,1.5,1.2,2.5,2.7,2.5c1.2,0,2-0.5,2-1.4s-0.7-1.3-2.2-2c-1.4-0.6-2.4-1.1-2.4-2.3c0-1.4,1.4-2.2,3-2.2
			c0.5,0,1,0.1,1.5,0.2c0.2,0.1,0.4,0.1,0.5,0.1c0.2,0,0.2,0,0.3-0.2c0,0,0.1-0.1,0.1-0.1c0.1,0,0.1,0,0.1,0.1c0,0,0,0.1,0,0.2
			c-0.1,0.3-0.1,1-0.1,1.5L61.8,36.8L61.8,36.8z"/>
		<path class="st0" d="M73.7,34.8c0.6,0,1.3,0,1.9,0c0.2,0,0.3,0,0.3,0c0.2,0,0.3,0,0.3,0.2c0,0.2,0,0.6,0,1.1c0,0.2,0,0.5,0,0.7
			c0,0.1-0.1,0.1-0.1,0.1s-0.1,0-0.1-0.1c-0.2-1.1-0.8-1.8-2.3-1.8h-0.1c-0.5,0-0.5,0-0.5,0.4v6.2c0,0.6,0,0.6,1.3,0.7
			c0.1,0,0.1,0,0.1,0.1c0,0,0,0.1-0.1,0.1c-0.1,0-0.1,0-0.4,0c-0.5,0-1.2,0-1.7,0s-1.2,0-1.7,0c-0.3,0-0.4,0-0.4,0
			c-0.1,0-0.1,0-0.1-0.1c0-0.1,0.1-0.1,0.1-0.1c1.3,0,1.3-0.1,1.3-0.7v-6.2c0-0.4,0-0.4-0.5-0.4h-0.1c-1.4,0-2,0.7-2.3,1.8
			c0,0.1-0.1,0.1-0.1,0.1s-0.1,0-0.1-0.1c0-0.2,0-0.5,0-0.7c0-0.4,0-0.8,0-1.1c0-0.2,0.1-0.2,0.3-0.2c0.1,0,0.1,0,0.4,0
			c0.6,0,1.3,0,1.9,0H73.7L73.7,34.8z"/>
		<path class="st0" d="M93.2,41.2c0,1.1,0.3,1.1,1.3,1.2c0.1,0,0.1,0,0.1,0.1s0,0.1-0.1,0.1c-0.1,0-0.3,0-0.5,0c-0.6,0-1.3,0-1.7,0
			c-0.6,0-1,0-1.4,0c-0.4,0-0.6,0-0.8,0c-0.1,0-0.1,0-0.1-0.1s0.1-0.1,0.1-0.1c1.2,0,1.3-0.1,1.3-1.2v-5.6L88,42.5
			c0,0-0.1,0.1-0.1,0.1s-0.1,0-0.1-0.1L84,35.7v5.4c0,1.1,0.6,1.3,1.7,1.3c0.1,0,0.1,0,0.1,0.1s0,0.1-0.1,0.1c-0.1,0-0.2,0-0.5,0
			c-0.4,0-0.9,0-1.3,0c-0.4,0-0.8,0-1,0c-0.3,0-0.5,0-0.7,0c-0.1,0-0.1,0-0.1-0.1s0.1-0.1,0.1-0.1c1,0,1.5-0.2,1.5-1.3v-5.4
			c0-0.6,0-0.7-1.3-0.7c-0.1,0-0.1,0-0.1-0.1c0,0,0.1-0.1,0.1-0.1c0.2,0,0.5,0,1,0c0.5,0,1.1,0,1.7,0c0.3,0,0.4,0,0.5,0.2l3,5.6
			l2.7-5.4c0.2-0.4,0.3-0.4,0.8-0.4s1,0,1.7,0c0.4,0,0.6,0,0.7,0c0.1,0,0.1,0,0.1,0.1s0,0.1-0.1,0.1c-1.3,0-1.3,0.1-1.3,0.7
			L93.2,41.2L93.2,41.2z"/>
		<path class="st0" d="M104.6,38.5c1.2,0,2-0.1,2.2-1c0,0,0.1-0.1,0.1-0.1s0.1,0,0.1,0.1s0,0.1,0,0.4c0,0.2,0,0.7,0,0.9s0,0.5,0,0.8
			c0,0.2,0,0.2,0,0.2c0,0.1,0,0.1-0.1,0.1c0,0-0.1,0-0.1-0.1c-0.2-0.9-0.9-1-2.2-1h-0.8v2.8c0,0.7,0.3,0.9,0.9,0.9h0.2
			c1.7,0,2.5-0.6,3-2c0,0,0,0,0.1,0s0.1,0,0.1,0.1c0,0.4-0.2,1.4-0.3,1.8c-0.1,0.4-0.2,0.4-0.5,0.4c-0.3,0-0.5,0-1.2,0
			c-0.8,0-1.9,0-3,0c-0.5,0-1,0-1.4,0c-0.5,0-0.8,0-1,0c-0.1,0-0.1,0-0.1-0.1s0-0.1,0.1-0.1c1.2,0,1.3,0,1.3-1.1v-5.2
			c0-1.1-0.1-1.1-1.4-1.2c-0.1,0-0.1,0-0.1-0.1s0.1-0.1,0.1-0.1c0,0,0.3,0,0.5,0c0.7,0,1.6,0,1.9,0h1.5c0.9,0,1.5,0,2,0
			c0.4,0,0.5,0,0.6,0c0.2,0,0.3,0,0.3,0.2c0,0.3,0,0.6,0,1c0,0.2,0,0.5,0,0.7c0,0.1,0,0.1-0.1,0.1c-0.1,0-0.1,0-0.1-0.1
			c-0.2-1-0.8-1.7-2.2-1.7h-1c-0.2,0-0.3,0-0.3,0.3v3.1L104.6,38.5L104.6,38.5z"/>
		<path class="st0" d="M122.7,36.5c0-1.1-0.7-1.5-2.1-1.5c-0.1,0-0.1,0-0.1-0.1s0.1-0.1,0.1-0.1c0.1,0,0.2,0,0.5,0
			c0.7,0,1.3,0,1.7,0c0.4,0,0.7,0,1.3,0c0.2,0,0.3,0,0.4,0c0.1,0,0.1,0.1,0.1,0.1s0,0.1-0.1,0.1c-1,0-1.6,0.4-1.6,1.5v6
			c0,0.2-0.1,0.2-0.2,0.2c-0.1,0-0.2,0-0.2-0.1l-6.3-6.7v5c0,1.2,0.3,1.5,2,1.5c0.1,0,0.1,0,0.1,0.1s0,0.1-0.1,0.1c0,0-0.1,0-0.4,0
			c-0.7,0-1.2,0-1.8,0c-0.4,0-0.9,0-1.4,0c-0.2,0-0.2,0-0.3,0c-0.1,0-0.1,0-0.1-0.1s0.1-0.1,0.1-0.1c1.1,0,1.6-0.3,1.6-1.5V36
			c0-0.9-0.2-1-1.6-1c-0.1,0-0.1,0-0.1-0.1s0.1-0.1,0.1-0.1h2.7c0.3,0,0.4,0.1,0.6,0.3l4.9,5.3L122.7,36.5L122.7,36.5z"/>
		<path class="st0" d="M136,34.8c0.5,0,1.3,0,1.9,0c0.2,0,0.3,0,0.3,0c0.2,0,0.3,0,0.3,0.2c0,0.2,0,0.6,0,1.1c0,0.2,0,0.5,0,0.7
			c0,0.1-0.1,0.1-0.1,0.1s-0.1,0-0.1-0.1c-0.2-1.1-0.8-1.8-2.3-1.8h-0.1c-0.5,0-0.5,0-0.5,0.4v6.2c0,0.6,0,0.6,1.3,0.7
			c0.1,0,0.1,0,0.1,0.1c0,0,0,0.1-0.1,0.1c-0.1,0-0.1,0-0.4,0c-0.5,0-1.2,0-1.7,0s-1.2,0-1.7,0c-0.3,0-0.4,0-0.4,0
			c-0.1,0-0.1,0-0.1-0.1c0-0.1,0.1-0.1,0.1-0.1c1.3,0,1.3-0.1,1.3-0.7v-6.2c0-0.4,0-0.4-0.5-0.4H133c-1.4,0-2,0.7-2.3,1.8
			c0,0.1-0.1,0.1-0.1,0.1s-0.1,0-0.1-0.1c0-0.2,0-0.5,0-0.7c0-0.4,0-0.8,0-1.1c0-0.2,0.1-0.2,0.3-0.2c0.1,0,0.1,0,0.4,0
			c0.5,0,1.3,0,1.9,0H136L136,34.8z"/>
	</g>
</g>
</svg>
