<?xml version="1.0" encoding="UTF-8"?><svg id="_レイヤー_2" xmlns="http://www.w3.org/2000/svg" viewBox="0 0 138.57 42.71"><defs><style>.cls-1{fill:#fff;}</style></defs><g id="_レイヤー_1-2"><g><path class="cls-1" d="M9.07,11.05c1.19-2.12,3.31-3.13,5.9-3.13,3.67,0,6.52,2.2,6.52,6.98v13.89h-6.12v-12.6c0-2.77-.86-3.74-2.84-3.74-1.76,0-3.13,1.08-3.13,3.74v12.6H3.28V8.28h5.72v2.77h.07Z"/><path class="cls-1" d="M41.4,18.25c0,7.67-4.36,10.91-10.04,10.91s-10.04-3.2-10.04-10.33c0-7.67,4.36-10.91,10.04-10.91s10.04,3.2,10.04,10.33Zm-6.3,.22c0-3.35-1.08-6.05-3.74-6.05-2.52,0-3.74,1.91-3.74,6.19,0,3.35,1.08,6.05,3.74,6.05,2.52,0,3.74-1.94,3.74-6.19Z"/><path class="cls-1" d="M46.37,13.68c.58-3.89,2.38-5.87,5.26-5.87,.54,0,1.19,.04,1.73,.14v5.11c-.54-.11-1.19-.14-1.73-.14-2.66,0-4.25,.68-4.25,4.79v11.09h-6.16V8.28h4.97v5.4h.18Z"/><path class="cls-1" d="M59.18,21.89c0,1.98,.94,2.66,2.99,2.66,.65,0,1.33-.14,1.73-.29v4.32c-1.08,.36-2.66,.58-4.03,.58-3.89,0-6.62-2.02-6.62-6.3V12.6h-2.95v-4.32h2.95v-2.74l5.94-3.42v6.16h4.43v4.32h-4.43v9.29Z"/><path class="cls-1" d="M68.9,10.91c1.19-2.02,3.27-2.99,5.8-2.99,3.67,0,6.51,2.2,6.51,6.98v13.89h-6.12v-12.6c0-2.77-.86-3.74-2.84-3.74-1.76,0-3.13,1.08-3.13,3.74v12.6h-6.12V0h6.12V5.11c0,3.17-.29,5.08-.43,5.8h.22Z"/><path class="cls-1" d="M93.96,28.8h-7.49l-6.16-20.52h6.48l2.45,10.15c.68,2.84,.97,4.39,1.19,6.59h.22c.22-2.2,.54-3.74,1.22-6.59l2.45-10.15h5.79l-6.15,20.52Z"/><path class="cls-1" d="M118.22,18.25c0,7.67-4.36,10.91-10.04,10.91s-10.04-3.2-10.04-10.33c0-7.67,4.36-10.91,10.04-10.91s10.04,3.2,10.04,10.33Zm-6.3,.22c0-3.35-1.08-6.05-3.74-6.05-2.52,0-3.74,1.91-3.74,6.19,0,3.35,1.08,6.05,3.74,6.05,2.52,0,3.74-1.94,3.74-6.19Z"/><path class="cls-1" d="M124.16,23.15c0,1.12,.36,1.69,1.44,1.69,.14,0,.4,0,.61-.07v4.03c-.68,.22-1.76,.36-2.74,.36-3.1,0-5.43-1.12-5.43-5V0h6.12V23.15Z"/><path class="cls-1" d="M132.05,21.89c0,1.98,.94,2.66,2.99,2.66,.65,0,1.33-.14,1.73-.29v4.32c-1.08,.36-2.66,.58-4.03,.58-3.89,0-6.62-2.02-6.62-6.3V12.6h-2.95v-4.32h2.95v-2.74l5.94-3.42v6.16h4.43v4.32h-4.43v9.29Z"/></g><g><path class="cls-1" d="M3.12,41.71c0,.62,.03,.64,1.3,.69,.08,0,.13,.04,.13,.1,0,.05-.04,.1-.13,.1-.05,0-.14,0-.42-.01-.51-.02-1.21-.04-1.73-.04s-1.22,.02-1.73,.04c-.27,.01-.36,.01-.42,.01-.09,0-.13-.05-.13-.1,0-.06,.05-.1,.13-.1,1.27-.04,1.3-.06,1.3-.69v-6.02c0-.62-.03-.64-1.3-.69-.08,0-.13-.04-.13-.1,0-.05,.04-.1,.13-.1,.05,0,.14,0,.42,0,.51,.02,1.21,.04,1.73,.04s1.22-.02,1.73-.04c.27,0,.36,0,.42,0,.09,0,.13,.05,.13,.1,0,.06-.05,.1-.13,.1-1.27,.04-1.3,.06-1.3,.69v6.02Z"/><path class="cls-1" d="M19.02,36.52c0-1.11-.65-1.48-2.05-1.51-.08,0-.13-.05-.13-.1s.05-.11,.13-.11c.05,0,.19,0,.49,0,.7,.03,1.29,.04,1.73,.04,.36,0,.73-.01,1.35-.04,.17,0,.31,0,.36,0,.08,0,.12,.06,.12,.11s-.04,.1-.12,.1c-1.04,.04-1.56,.4-1.56,1.51v5.96c0,.19-.1,.21-.19,.21-.08,0-.16-.03-.21-.09l-6.27-6.74v4.98c0,1.24,.27,1.5,2,1.55,.08,0,.12,.05,.12,.1s-.04,.1-.12,.1c-.04,0-.14,0-.42-.01-.69-.03-1.25-.04-1.75-.04-.44,0-.92,0-1.43,.04-.18,.01-.23,.01-.29,.01-.08,0-.13-.05-.13-.1s.05-.1,.13-.1c1.05-.05,1.56-.31,1.56-1.55v-4.87c0-.93-.16-.97-1.56-.97-.08,0-.13-.05-.13-.1s.08-.1,.13-.1h2.73c.3,0,.43,.1,.59,.28l4.91,5.31v-3.86Z"/><path class="cls-1" d="M31.29,42.6c-.69-1.54-2.16-4.76-2.76-5.96-.78-1.58-.87-1.6-1.6-1.65-.09-.01-.13-.04-.13-.09s.04-.09,.14-.09c.05,0,.21,0,.44,0,.75,.03,1.57,.04,2.08,.04s1.05-.01,1.51-.03c.4-.02,.56-.02,.62-.02,.09,0,.14,.04,.14,.09,0,.06-.05,.09-.14,.1-.96,.06-1.47,.2-1.47,.76,0,.18,.05,.4,.16,.68,.51,1.3,1.42,3.43,1.98,4.64,.57-1.2,1.56-3.43,2.04-4.53,.13-.29,.19-.53,.19-.73,0-.61-.58-.77-1.33-.82-.08,0-.12-.05-.12-.09,0-.07,.05-.1,.13-.1,.13,0,.48,0,.94,.03,.26,0,.55,.02,.85,.02,.39,0,.69,0,1.08-.03,.14-.01,.3-.02,.38-.02,.06,0,.1,.03,.1,.08,0,.04-.03,.08-.12,.09-.92,.07-1.17,.42-1.85,1.82-.91,1.89-1.99,4.25-2.69,5.81h-.58Z"/><path class="cls-1" d="M46.23,38.45c1.2,0,1.99-.12,2.17-1.02,.01-.05,.05-.07,.09-.07s.09,.02,.09,.08,0,.12-.01,.4c-.01,.25-.03,.7-.03,.88s.01,.55,.03,.75c.01,.17,.01,.19,.01,.23,0,.06-.04,.09-.09,.09-.04,0-.08-.02-.09-.08-.19-.94-.95-1.03-2.17-1.03h-.78v2.77c0,.74,.26,.9,.91,.9h.23c1.66,0,2.51-.59,3.04-1.98,.01-.03,.04-.05,.08-.05s.09,.02,.09,.08c0,.37-.19,1.43-.29,1.77-.1,.42-.18,.44-.53,.44-.33,0-.53,0-1.21-.02-.81-.02-1.94-.03-2.96-.03-.48,0-.98,0-1.38,.02-.46,.02-.82,.03-.98,.03-.1,0-.14-.05-.14-.1s.04-.1,.14-.1c1.16,0,1.29-.03,1.29-1.06v-5.17c0-1.07-.08-1.09-1.42-1.16-.09,0-.14-.05-.14-.1s.05-.1,.14-.1c.04,0,.27,0,.51,0,.71,.02,1.57,.04,1.91,.04h1.47c.87,0,1.47,0,2.03-.03,.42-.02,.52-.02,.58-.02,.25,0,.29,.02,.3,.22,.03,.3,.04,.6,.04,1,0,.24-.01,.48-.03,.68-.01,.09-.04,.12-.1,.12-.05,0-.1-.02-.12-.1-.22-1.02-.78-1.68-2.15-1.68h-1.03c-.22,0-.3,.04-.3,.3v3.11h.78Z"/><path class="cls-1" d="M61.84,36.82c0,.07-.05,.11-.12,.11s-.12-.02-.13-.09c-.26-1.19-.99-1.94-2.17-1.94-.94,0-1.61,.48-1.61,1.35s.87,1.27,2.08,1.73c1.59,.6,2.5,1.05,2.5,2.3s-1.18,2.42-3.46,2.42c-.53,0-1-.08-1.39-.16-.31-.06-.6-.11-.85-.11-.13,0-.3,0-.43,.2-.03,.04-.07,.06-.12,.06s-.1-.03-.1-.09c0-.02,0-.05,.04-.16,.14-.41,.18-.71,.18-1.14s-.05-.87-.09-1.1c-.01-.07-.01-.09-.01-.13,0-.06,.05-.1,.12-.1,.05,0,.1,.03,.12,.07,.55,1.51,1.18,2.47,2.72,2.47,1.2,0,1.96-.48,1.96-1.37s-.66-1.31-2.22-1.96c-1.43-.58-2.44-1.11-2.44-2.26,0-1.41,1.38-2.22,2.95-2.22,.53,0,.95,.07,1.52,.23,.21,.06,.38,.1,.52,.1,.2,0,.23-.05,.33-.19,.03-.05,.08-.07,.13-.07,.07,0,.14,.04,.14,.11,0,.04-.01,.09-.05,.25-.08,.32-.1,1.04-.1,1.48v.21Z"/><path class="cls-1" d="M73.74,34.85c.55,0,1.34-.01,1.88-.04,.22,0,.29,0,.34,0,.25,0,.29,.03,.3,.23,.01,.21,.04,.63,.04,1.06,0,.25-.01,.5-.03,.71-.01,.09-.05,.12-.1,.12s-.11-.02-.12-.1c-.23-1.08-.83-1.76-2.28-1.76h-.14c-.49,0-.52,.01-.52,.43v6.22c0,.62,.03,.64,1.3,.69,.08,0,.13,.04,.13,.1,0,.05-.04,.1-.13,.1-.05,0-.14,0-.42-.01-.51-.02-1.21-.04-1.73-.04s-1.22,.02-1.73,.04c-.27,.01-.36,.01-.42,.01-.09,0-.13-.05-.13-.1,0-.06,.05-.1,.13-.1,1.27-.04,1.3-.06,1.3-.69v-6.22c0-.42-.03-.43-.52-.43h-.14c-1.44,0-2.04,.68-2.28,1.76-.01,.08-.06,.1-.12,.1s-.09-.03-.1-.12c-.01-.21-.03-.46-.03-.71,0-.43,.03-.85,.04-1.06,.01-.2,.05-.23,.3-.23,.07,0,.14,0,.36,0,.55,.03,1.31,.04,1.86,.04h2.94Z"/><path class="cls-1" d="M93.16,41.23c0,1.1,.26,1.12,1.3,1.17,.09,0,.13,.05,.13,.1s-.04,.1-.13,.1c-.05,0-.27-.01-.48-.02-.62-.03-1.3-.04-1.66-.04-.57,0-1.01,.01-1.38,.03-.36,.02-.61,.03-.78,.03-.08,0-.13-.05-.13-.1s.05-.1,.13-.1c1.18-.03,1.3-.06,1.3-1.17v-5.64l-3.47,6.91c-.03,.05-.09,.07-.14,.07s-.1-.02-.13-.08l-3.68-6.79v5.4c0,1.07,.61,1.29,1.72,1.29,.09,0,.13,.05,.13,.1s-.04,.1-.13,.1c-.06,0-.2,0-.52-.02-.4-.02-.91-.03-1.3-.03-.42,0-.77,0-1.04,.02-.29,.02-.51,.03-.68,.03-.08,0-.13-.05-.13-.1s.05-.1,.13-.1c1.03,0,1.5-.25,1.5-1.29v-5.39c0-.62-.03-.65-1.3-.71-.08,0-.13-.04-.13-.1,0-.05,.05-.1,.13-.1,.16,0,.53,0,1,0,.49,.01,1.09,.02,1.68,.02,.3,0,.4,.05,.49,.23l2.99,5.63,2.7-5.42c.2-.4,.34-.44,.83-.44s1.03,0,1.68-.02c.39,0,.56,0,.68,0,.09,0,.13,.05,.13,.1s-.04,.1-.13,.1c-1.27,0-1.3,.08-1.3,.71v5.51Z"/><path class="cls-1" d="M104.61,38.45c1.2,0,1.99-.12,2.17-1.02,.01-.05,.05-.07,.09-.07s.09,.02,.09,.08,0,.12-.01,.4c-.01,.25-.03,.7-.03,.88s.01,.55,.03,.75c.01,.17,.01,.19,.01,.23,0,.06-.04,.09-.09,.09-.04,0-.08-.02-.09-.08-.19-.94-.95-1.03-2.17-1.03h-.78v2.77c0,.74,.26,.9,.91,.9h.23c1.66,0,2.51-.59,3.04-1.98,.01-.03,.04-.05,.08-.05s.09,.02,.09,.08c0,.37-.2,1.43-.29,1.77-.1,.42-.18,.44-.53,.44-.33,0-.53,0-1.21-.02-.81-.02-1.94-.03-2.96-.03-.48,0-.97,0-1.38,.02-.46,.02-.82,.03-.98,.03-.1,0-.14-.05-.14-.1s.04-.1,.14-.1c1.16,0,1.29-.03,1.29-1.06v-5.17c0-1.07-.08-1.09-1.42-1.16-.09,0-.14-.05-.14-.1s.05-.1,.14-.1c.04,0,.27,0,.51,0,.71,.02,1.57,.04,1.91,.04h1.47c.87,0,1.47,0,2.03-.03,.42-.02,.52-.02,.58-.02,.25,0,.29,.02,.3,.22,.03,.3,.04,.6,.04,1,0,.24-.01,.48-.03,.68-.01,.09-.04,.12-.1,.12-.05,0-.1-.02-.12-.1-.22-1.02-.78-1.68-2.15-1.68h-1.03c-.22,0-.3,.04-.3,.3v3.11h.78Z"/><path class="cls-1" d="M122.72,36.52c0-1.11-.65-1.48-2.05-1.51-.08,0-.13-.05-.13-.1s.05-.11,.13-.11c.05,0,.2,0,.49,0,.7,.03,1.29,.04,1.73,.04,.37,0,.73-.01,1.35-.04,.17,0,.31,0,.37,0,.08,0,.12,.06,.12,.11s-.04,.1-.12,.1c-1.04,.04-1.56,.4-1.56,1.51v5.96c0,.19-.1,.21-.2,.21-.08,0-.16-.03-.21-.09l-6.27-6.74v4.98c0,1.24,.27,1.5,2,1.55,.08,0,.12,.05,.12,.1s-.04,.1-.12,.1c-.04,0-.14,0-.42-.01-.69-.03-1.25-.04-1.76-.04-.44,0-.92,0-1.43,.04-.18,.01-.23,.01-.29,.01-.08,0-.13-.05-.13-.1s.05-.1,.13-.1c1.05-.05,1.56-.31,1.56-1.55v-4.87c0-.93-.16-.97-1.56-.97-.08,0-.13-.05-.13-.1s.08-.1,.13-.1h2.73c.3,0,.43,.1,.59,.28l4.91,5.31v-3.86Z"/><path class="cls-1" d="M136.01,34.85c.54,0,1.34-.01,1.88-.04,.22,0,.29,0,.34,0,.25,0,.29,.03,.3,.23,.01,.21,.04,.63,.04,1.06,0,.25-.01,.5-.03,.71-.01,.09-.05,.12-.1,.12s-.11-.02-.12-.1c-.23-1.08-.83-1.76-2.28-1.76h-.14c-.49,0-.52,.01-.52,.43v6.22c0,.62,.03,.64,1.3,.69,.08,0,.13,.04,.13,.1,0,.05-.04,.1-.13,.1-.05,0-.14,0-.42-.01-.51-.02-1.21-.04-1.73-.04s-1.22,.02-1.73,.04c-.27,.01-.36,.01-.42,.01-.09,0-.13-.05-.13-.1,0-.06,.05-.1,.13-.1,1.28-.04,1.3-.06,1.3-.69v-6.22c0-.42-.03-.43-.52-.43h-.14c-1.44,0-2.04,.68-2.28,1.76-.01,.08-.06,.1-.12,.1s-.09-.03-.1-.12c-.01-.21-.03-.46-.03-.71,0-.43,.03-.85,.04-1.06,.01-.2,.05-.23,.3-.23,.07,0,.14,0,.37,0,.54,.03,1.31,.04,1.86,.04h2.94Z"/></g></g></svg>